<svg xmlns="http://www.w3.org/2000/svg" width="256" height="256">
    <path d="M159 9c19.992 3.608 37.016 13.421 52 27l1.55 1.4c23.178 21.238 37.527 51.305 39.592 82.765 1.334 32.439-8.208 64.46-30.142 88.835l-1.953 2.348C214.972 217.36 209.237 222.224 203 227l-2.363 1.84C180.517 243.752 154.04 252.789 129 252c.68-3.197 1.807-5.917 3.223-8.86l1.37-2.857 1.47-3.033 1.507-3.13c3.756-7.78 7.583-15.521 11.478-23.233 1.28-2.537 2.55-5.08 3.82-7.622L157 193l1.719-3.438 22.994-45.988 3.057-6.114c2.167-4.336 4.335-8.672 6.51-13.004 4.366-8.696 8.67-17.417 12.845-26.206l.911-1.864c.88-1.804 1.74-3.618 2.597-5.433l1.528-3.182c1.05-2.675 1.05-2.675.362-5.08-1.458-1.888-1.458-1.888-3.99-2.574-4.917-.163-9.296.887-14.064 2.016l-3.112.708c-3.288.75-6.573 1.517-9.857 2.284l-6.441 1.477a5067.124 5067.124 0 00-25.383 5.881l-5.957 1.384-2.755.654c-4.052.937-7.772 1.774-11.964 1.479a362.791 362.791 0 016.438-18.125l1.025-2.68c3.625-9.457 7.286-18.898 10.946-28.34C149.296 34.245 154.153 21.625 159 9z" />
    <path d="M82 14c-1.324 8.582-3.483 16.88-5.794 25.236-1.134 4.1-2.249 8.206-3.366 12.31l-.71 2.602c-6.594 24.22-12.852 48.534-19 72.871-.541 2.14-1.085 4.279-1.63 6.417a2327.73 2327.73 0 00-2.262 8.955l-.69 2.683C47.17 150.627 46.142 155.424 48 161c8.876-.51 17.377-2.533 26-4.563l4.59-1.062a3266.11 3266.11 0 0021.697-5.112c2.356-.563 4.712-1.124 7.068-1.685 2.966-.706 5.929-1.42 8.891-2.139l4.059-.97 3.562-.862c2.815-.545 5.278-.733 8.133-.607-3.041 14.24-6.561 28.337-10.188 42.438l-1.727 6.741c-1.15 4.485-2.3 8.969-3.452 13.452-1.269 4.943-2.53 9.888-3.787 14.835-.837 3.296-1.677 6.591-2.517 9.886-.385 1.51-.768 3.018-1.15 4.528-.52 2.054-1.044 4.107-1.57 6.16l-.876 3.443C106 248 106 248 105 249c-23.478-.81-46.651-16.308-63-32-.77-.72-1.542-1.439-2.336-2.18C33.991 209.38 29.378 203.52 25 197l-2.066-3.063C4.617 165.577.593 131.267 7.488 98.697 14.96 66.93 35.848 39.71 63.19 22.273 76.687 14 76.687 14 82 14z" />
</svg>
